<?xml version="1.0" encoding="UTF-8" standalone="no"?>
<svg
   version="1.1"
   id="svg1"
   xmlns="http://www.w3.org/2000/svg"
   xmlns:svg="http://www.w3.org/2000/svg">
  <defs>
    <style
       type="text/css"
       id="style1">
      .land
      {
      fill: #CCCCCC;
      fill-opacity: 1;
      stroke:white;
      stroke-opacity: 1;
      stroke-width:0.5;
      }
    </style>
  </defs>
  <g>

      <path id="chest1" title="chest1" class="muscle" d="m 93.273305,82.263575 c -1.717147,-0.931567 -1.747152,-1.051263 -1.706402,-6.807179 l 0.04148,-5.858938 3.556917,-3.019068 c 5.95225,-5.0522 9.27982,-4.068775 15.09834,4.462149 4.5232,6.631768 4.43321,7.365886 -1.24618,10.166521 -3.63512,1.792559 -4.79754,2.052395 -9.082459,2.030204 -3.106938,-0.01609 -5.556533,-0.374129 -6.661695,-0.973689 z"/>
      
      <path id="chest2" title="chest2" class="muscle" d="m 73.029874,83.199584 c -1.705755,-0.265227 -6.109765,-2.499225 -8.167022,-4.142841 -0.988028,-0.789372 -1.823491,-1.454026 -1.856584,-1.477011 -0.03309,-0.02298 1.276749,-2.129294 2.91076,-4.680689 2.815577,-4.39633 3.106805,-4.769147 5.569439,-7.129759 l 2.598511,-2.490859 h 2.407129 2.40713 l 2.788995,2.116363 c 1.533948,1.163999 3.063115,2.33777 3.398152,2.608379 0.570724,0.460976 0.647449,0.71865 1.21613,4.084287 0.460451,2.725088 0.607026,4.283125 0.607179,6.454109 l 2.01e-4,2.861838 -1.95829,1.009298 -1.958293,1.009297 -4.451748,-0.0288 c -2.448462,-0.01584 -4.928722,-0.102965 -5.511689,-0.193611 z"/>

      <path id="obliques1" title="obliques1" class="muscle" d="m 75.891336,131.48338 c -1.457625,-1.42706 -4.094112,-4.00198 -5.858859,-5.72203 l -3.208631,-3.12736 1.358829,-11.75734 1.358829,-11.757332 -1.799728,-4.586253 c -1.736625,-4.425446 -1.814836,-4.69993 -2.230591,-7.828346 -0.537304,-4.043036 -0.539942,-4.221861 -0.05988,-4.0589 0.204039,0.06926 2.278872,0.781461 4.61074,1.582662 l 4.23976,1.45673 0.06717,0.677893 c 0.03694,0.372842 -0.08309,5.257725 -0.26674,10.855296 l -0.333912,10.1774 2.125289,12.01839 c 1.168908,6.61011 2.314433,12.52769 2.545611,13.15018 0.455866,1.22751 0.506159,1.51924 0.261333,1.51587 -0.08745,-0.001 -1.351593,-1.16979 -2.809218,-2.59686 z"/>

    <path id="obliques2" title="obliques2" class="muscle" d="m 97.09105,136.06429 c 2.94e-4,-0.099 0.245596,-1.08622 0.545116,-2.19385 0.29952,-1.10764 1.261147,-5.49579 2.136949,-9.75145 l 1.592365,-7.73756 0.48447,-15.11159 c 0.26646,-8.311369 0.52414,-15.151248 0.57263,-15.199731 0.0485,-0.04848 1.60079,-0.618189 3.44958,-1.266014 1.84879,-0.647826 3.92832,-1.432266 4.62117,-1.7432 0.88181,-0.395733 1.3043,-0.493227 1.40828,-0.324978 0.0817,0.132197 0.41306,1.324869 0.73635,2.650383 l 0.58779,2.410026 -1.93283,3.57198 -1.93284,3.57198 0.13536,8.282704 c 0.0744,4.55549 0.26927,10.95376 0.43295,14.21838 l 0.2976,5.93566 -5.34881,5.36673 c -5.347607,5.36552 -7.787137,7.65917 -7.78613,7.32053 z"/>
    
    <path id="abs1" title="abs1" class="muscle" d="m 95.288617,96.126787 c -1.505388,-0.142774 -4.747233,-0.74501 -4.915344,-0.913121 -0.03493,-0.03493 -0.356886,-2.209882 -0.715457,-4.833226 l -0.651946,-4.769717 0.459465,-0.778736 c 0.306579,-0.519612 0.61121,-0.776584 0.915499,-0.772269 0.775919,0.011 9.28363,1.845331 9.45138,2.037791 0.139265,0.159779 1.294376,7.596503 1.288386,8.294782 -10e-4,0.148284 -0.58947,0.649106 -1.307107,1.112937 -1.408823,0.910566 -1.436922,0.914426 -4.524876,0.621559 z"/>
    <path id="abs2" title="abs2" class="muscle" d="m 77.110644,95.668965 -1.006943,-0.433287 v -4.849255 -4.849255 l 2.384865,-0.0028 c 1.64236,-0.0019 3.506873,-0.193075 5.988661,-0.613949 1.982088,-0.336133 3.63619,-0.580715 3.675781,-0.543515 0.03959,0.0372 -0.139069,2.292915 -0.397023,5.012701 -0.388544,4.096682 -0.536058,5.015574 -0.85983,5.356043 -0.306065,0.32185 -1.116441,0.514679 -3.736743,0.889157 -4.080009,0.58309 -4.764098,0.586953 -6.048768,0.03416 z"/>
    <path id="abs3" title="abs3" class="muscle" d="m 76.78125,106.67288 -0.677549,-0.69905 v -3.93891 -3.938917 l 3.762787,-0.135899 c 2.069533,-0.07474 4.740582,-0.193131 5.935665,-0.263081 l 2.172877,-0.127182 -0.0023,4.318079 -0.0023,4.31808 -1.555778,0.58297 c -1.479203,0.55427 -1.737895,0.58296 -5.255818,0.58296 h -3.70004 z"/>
    <path id="abs4" title="abs4" class="muscle" d="m 89.816589,106.77737 -0.569631,-0.59457 v -4.17516 -4.175167 h 2.298011 c 1.263907,0 3.887258,0.06268 5.829671,0.139285 l 3.53166,0.139285 v 4.051487 4.05149 l -1.536914,0.5826 c -1.46604,0.55575 -1.708602,0.58245 -5.260039,0.57896 l -3.723127,-0.004 z"/>
    <path id="abs5" title="abs5" class="muscle" d="m 84.901203,117.19493 c -2.102648,-0.45258 -7.256813,-1.88381 -7.441009,-2.06624 -0.325258,-0.32214 -1.356493,-4.3388 -1.356493,-5.28353 v -0.77732 h 5.273202 c 2.900261,0 5.57131,-0.0596 5.935664,-0.13249 l 0.662463,-0.1325 v 2.70819 c 0,2.43589 -0.05861,2.8646 -0.582967,4.26396 -0.575546,1.53597 -0.592412,1.55549 -1.324925,1.53348 -0.408077,-0.0123 -0.932748,-0.0634 -1.165935,-0.11355 z"/>
    <path id="abs6" title="abs6" class="muscle" d="m 89.721878,113.95283 -0.657251,-3.50707 0.586108,-0.54868 0.586109,-0.54868 5.274242,-0.13011 c 2.900834,-0.0716 5.303854,-0.10048 5.340054,-0.0643 0.0362,0.0362 -0.12737,0.51649 -0.36349,1.06733 -0.29788,0.69493 -0.42937,1.46665 -0.42951,2.52087 l -2.1e-4,1.51933 -1.720251,0.92865 c -1.39566,0.75342 -2.308798,1.05516 -4.839401,1.59917 l -3.11915,0.67053 z"/>
    <path id="abs7" title="abs7" class="muscle" d="m 84.357694,142.17629 c -0.872701,-1.08627 -1.171806,-1.80243 -3.053034,-7.30995 l -2.085549,-6.10569 -0.67325,-5.65964 c -0.370288,-3.11281 -0.654065,-5.68731 -0.630615,-5.72112 0.02345,-0.0338 0.772664,0.22853 1.66492,0.58297 1.512262,0.60073 1.807665,0.64444 4.355766,0.64444 h 2.733482 l 0.121845,0.58297 c 0.06701,0.32063 0.361845,2.08693 0.655179,3.92511 l 0.533334,3.34215 -0.638335,8.19427 c -0.351085,4.50684 -0.638335,8.32113 -0.638335,8.47618 0,0.17975 -0.249689,0.2766 -0.688961,0.26724 -0.575297,-0.0123 -0.848576,-0.21336 -1.656447,-1.21893 z"/>
    <path id="abs8" title="abs8" class="muscle" d="m 90.430887,143.15781 c -0.04653,-0.15283 -0.273029,-3.71209 -0.503341,-7.90945 l -0.41875,-7.63157 0.570478,-4.18153 c 0.313763,-2.29985 0.612579,-4.21521 0.664036,-4.25637 0.05146,-0.0412 1.762964,-0.4198 3.803349,-0.84141 3.484467,-0.72002 3.73122,-0.74477 4.06262,-0.40737 0.329431,0.33539 0.249297,0.90046 -1.208355,8.52075 l -1.561184,8.16154 -1.875089,4.34575 -1.875089,4.34575 -0.787041,0.0659 c -0.51198,0.0429 -0.816606,-0.0312 -0.871634,-0.21199 z"/>

    <path id="abductor1" title="abductor1" class="muscle" d="m 61.55618,146.64272 c 0.05952,-0.20404 0.46148,-2.01003 0.893237,-4.01331 0.503663,-2.33692 1.514679,-5.85034 2.820897,-9.80303 l 2.035884,-6.16069 0.900949,0.54056 c 1.076085,0.64565 1.04346,0.17756 0.501415,7.19416 l -0.376659,4.87572 -2.420745,3.54016 c -2.132311,3.11835 -2.522624,3.57932 -3.275784,3.86879 -1.085735,0.41728 -1.211839,0.41233 -1.079194,-0.0424 z" />
    <path id="abductor2" title="abductor2" class="muscle" d="m 112.26449,142.87388 -3.09066,-3.50385 0.001,-5.87662 0.001,-5.87662 0.66783,-0.38017 c 0.3673,-0.2091 0.73454,-0.3045 0.81609,-0.21199 0.37261,0.42269 4.16669,13.23212 4.77473,16.12028 0.63106,2.9975 0.65292,3.23282 0.30029,3.23282 -0.22575,0 -1.63631,-1.42393 -3.47096,-3.50385 z"/>

    <path id="biceps1" title="biceps1" class="muscle" d="m 49.181222,97.601147 v -6.802954 l 1.079201,-3.136534 1.079202,-3.136534 4.361827,-2.99191 4.361826,-2.991911 1.819561,0.976305 c 1.000759,0.536967 1.902486,1.053995 2.003838,1.148951 0.103678,0.09713 -0.108561,2.60966 -0.485254,5.744525 l -0.669531,5.57188 -1.846613,4.229811 -1.846614,4.229814 -4.62981,1.98075 c -2.546396,1.08942 -4.764321,1.98076 -4.928722,1.98076 -0.251014,0 -0.298911,-1.09011 -0.298911,-6.802953 z" />
    <path id="biceps2" title="biceps2" class="muscle" d="m 123.94863,102.59824 c -3.18298,-1.36012 -3.61786,-1.62626 -5.61125,-3.434015 l -1.11787,-1.01377 -1.58778,-5.460668 -1.58777,-5.460668 0.21697,-2.488883 c 0.41776,-4.792102 0.29014,-4.406158 1.77054,-5.354495 0.71715,-0.459402 1.4223,-0.837279 1.56701,-0.839727 0.1447,-0.0024 1.98565,1.163829 4.091,2.591728 l 3.8279,2.596178 1.38382,2.650525 1.38381,2.650525 0.40315,6.041659 c 0.56474,8.463351 0.57867,8.109791 -0.3366,8.546251 -0.41204,0.19648 -0.86516,0.34804 -1.00695,0.33679 -0.14178,-0.0113 -1.66998,-0.62389 -3.39598,-1.36143 z"/>

    <path id="calves1" title="calves1" class="muscle" d="m 218.13568,229.78068 c 0,-0.31525 0.28999,-3.30283 0.64443,-6.63907 l 0.64443,-6.06587 2.85337,-7.1549 2.85337,-7.1549 v -3.04184 -3.04183 l 1.03695,-0.64461 1.03695,-0.6446 1.11682,1.13087 1.11682,1.13087 -0.13982,3.7748 -0.13981,3.77481 -2.42271,9.35938 c -2.31702,8.9511 -2.47416,9.45573 -3.60203,11.56782 l -1.17932,2.20842 -1.90973,1.00692 -1.90972,1.00691 z" />
    <path id="calves2" title="calves2" class="muscle" d="m 229.28582,229.43094 c -2.4593,-2.67408 -2.92619,-3.36203 -2.92456,-4.30932 0.005,-2.73244 5.34521,-22.80469 6.38688,-24.00496 0.11541,-0.13299 0.85288,0.94878 1.63883,2.40392 l 1.429,2.6457 -0.7366,11.279 -0.73661,11.27899 -1.06522,1.94437 -1.06523,1.94437 z"/>
    <path id="calves3" title="calves3" class="muscle" d="m 274.54697,230.18539 c -0.53186,-0.94584 -0.74184,-2.86352 -1.32928,-12.1401 l -0.69764,-11.01684 1.36126,-3.27538 1.36127,-3.27538 1.38884,3.81887 c 0.76386,2.10038 2.30876,7.75692 3.4331,12.57008 l 2.04425,8.7512 -1.91282,2.56676 c -1.05205,1.41172 -1.9392,2.60412 -1.97145,2.64978 -0.0323,0.0456 -0.73078,0.17104 -1.55227,0.27864 -1.42134,0.18616 -1.52419,0.14127 -2.12526,-0.92763 z"/>
    <path id="calves4" title="calves4" class="muscle" d="m 285.10769,225.93095 c -1.78469,-3.09551 -1.92828,-3.51541 -2.45295,-7.17325 -0.31952,-2.22761 -1.43937,-6.93566 -2.62475,-11.03486 l -2.06745,-7.1496 1.09201,-2.64805 c 0.60061,-1.45642 1.19049,-2.7519 1.31084,-2.87884 0.12035,-0.12694 0.71292,0.21299 1.31683,0.7554 1.07033,0.96134 1.09805,1.05656 1.09951,3.77822 0.001,2.70912 0.087,3.00769 2.87994,10.05579 l 2.87845,7.26377 0.49755,5.06775 c 0.27365,2.78726 0.498,5.56185 0.49855,6.16575 9.5e-4,1.04484 -0.0604,1.09772 -1.26593,1.09195 -1.24574,-0.006 -1.29867,-0.0611 -3.1626,-3.29403 z"/>
    
    <path id="forearm1" title="forearm1" class="muscle" d="m 34.41228,131.63652 c -1.030673,-0.89401 -1.839052,-1.80355 -1.796398,-2.02122 0.208191,-1.06243 8.140135,-21.26265 9.094311,-23.16041 0.855683,-1.70187 1.531154,-2.57599 3.089934,-3.99866 1.347094,-1.22947 2.054098,-1.70925 2.177277,-1.47751 0.100326,0.18874 0.4059,1.54791 0.679053,3.02037 0.494644,2.66643 0.499889,2.67721 1.303448,2.67721 0.443743,0 2.415914,-0.6796 4.382602,-1.51022 3.486992,-1.47271 4.323628,-1.72547 4.317225,-1.30428 -0.01421,0.93491 -1.832392,5.9131 -2.839914,7.77572 -1.160625,2.14566 -1.826543,2.87512 -9.089727,9.95709 l -7.837353,7.64181 -0.0017,1.55679 c -0.0016,1.43216 -0.0659,1.59329 -0.803254,2.01278 l -0.801518,0.45598 z"/>
    <path id="forearm2" title="forearm2" class="muscle" d="m 138.25358,128.3305 -3.02044,-4.70202 -5.90358,-5.12335 -5.90358,-5.12334 -1.61481,-4.60734 c -1.0989,-3.13534 -1.52523,-4.69694 -1.33441,-4.88775 0.19082,-0.19082 1.45969,0.2157 3.97155,1.2724 l 3.69114,1.55282 1.00693,-0.5941 1.00694,-0.59411 v -2.44414 -2.44415 l 0.8924,0.0101 c 0.81728,0.009 1.09444,0.28308 3.29261,3.25335 l 2.40022,3.24327 4.12118,11.25317 c 2.26665,6.18924 4.12118,11.52274 4.12118,11.85223 0,0.42603 -0.43644,0.87826 -1.51092,1.5656 -0.83101,0.53159 -1.66506,1.02342 -1.85345,1.09296 -0.20688,0.0764 -1.53868,-1.73567 -3.36296,-4.57559 z"/>

    <path id="shoulder1" title="shoulder1" class="muscle" d="m 53.723937,78.715645 c -0.37882,-0.418591 -0.454435,-1.163798 -0.454435,-4.478588 v -3.976443 l 1.441571,-3.376922 1.441572,-3.376922 3.521694,-1.480382 3.521694,-1.480382 h 4.921796 4.921797 v 0.651928 c 0,0.509795 -0.400959,0.896141 -1.839099,1.772076 -1.803636,1.098548 -1.913886,1.23547 -5.717404,7.100555 l -3.878303,5.980408 -3.188965,1.37747 c -1.753932,0.757608 -3.279282,1.470142 -3.389669,1.583408 -0.335107,0.34385 -0.823551,0.23275 -1.302249,-0.296206 z"/>
    <path id="shoulder2" title="shoulder2" class="muscle" d="m 119.28269,77.365448 -3.31954,-1.845118 -3.54109,-5.326182 c -3.17603,-4.777093 -3.79335,-5.541886 -5.98795,-7.418516 l -2.44687,-2.092334 5.69341,-0.07429 5.69341,-0.07429 3.35239,2.056701 3.35239,2.056702 1.42868,3.419067 c 1.34347,3.215128 1.42868,3.558955 1.42868,5.764317 0,2.943478 -0.78847,5.388396 -1.73588,5.382674 -0.32895,-0.002 -2.09188,-0.833915 -3.91763,-1.848731 z"/>

    <path id="glutes1" title="glutes1" class="muscle" d="m 235.42009,153.71886 -3.05704,-1.55561 -1.13039,-2.53792 c -1.03409,-2.32174 -1.13038,-2.73516 -1.13038,-4.85326 0,-2.1952 0.11245,-2.63064 2.16732,-8.39251 2.36981,-6.64495 2.15333,-6.28448 6.50127,-10.82554 l 2.82626,-2.95179 1.32314,0.0104 c 1.11086,0.009 1.75659,0.26718 4.0248,1.61075 2.70082,1.59981 2.70218,1.60116 4.3224,4.31429 l 1.62073,2.71397 0.002,8.14547 0.002,8.14547 -1.26545,3.584 c -0.82469,2.3357 -1.42243,3.62758 -1.71615,3.70913 -0.24789,0.0688 -2.92198,0.19568 -5.94241,0.28193 l -5.49171,0.1568 z"/>
    <path id="glutes2" title="glutes2" class="muscle" d="m 257.9849,154.93462 c -0.0593,-0.18878 -0.25737,-0.83748 -0.44016,-1.44157 -0.1828,-0.60409 -0.81,-2.30557 -1.39379,-3.78107 l -1.06143,-2.68272 0.004,-7.75151 0.004,-7.75151 1.4499,-2.723 1.44991,-2.723 3.81633,-2.16234 3.81633,-2.16235 3.63568,3.6282 3.63569,3.6282 2.17817,5.65051 c 1.82569,4.7361 2.24961,6.14725 2.61955,8.72011 l 0.44137,3.06961 -1.16024,2.83397 -1.16024,2.83397 -3.15773,1.55972 -3.15772,1.55972 -5.70626,0.0191 c -4.3381,0.0145 -5.73211,-0.0632 -5.81408,-0.32409 z"/>

    <path id="harmstrings1" title="harmstrings1" class="muscle" d="m 235.22459,200.51574 -2.11131,-4.46201 0.005,-3.05111 c 0.005,-3.043 0.008,-3.06017 1.41485,-6.45275 1.40598,-3.39161 1.41244,-3.42106 2.19225,-9.99168 0.77104,-6.49683 0.80498,-6.65403 2.39937,-11.11444 1.85892,-5.20043 1.64758,-5.35857 2.37705,1.77855 0.23154,2.26533 0.91248,7.02897 1.51322,10.58587 l 1.09224,6.46708 -1.19261,5.75195 c -1.10014,5.30596 -1.34791,6.10856 -3.19554,10.35125 -1.10161,2.52961 -2.08843,4.5993 -2.19293,4.5993 -0.1045,0 -1.14009,-2.00791 -2.30131,-4.46201 z"/>
    <path id="harmstrings2" title="harmstrings2" class="muscle" d="m 268.90308,200.92762 c -1.32778,-2.82133 -1.95385,-4.67366 -3.22503,-9.54183 l -1.57739,-6.04087 1.72725,-11.1957 c 1.67005,-10.82489 1.7438,-11.17916 2.22679,-10.69617 0.88855,0.88855 2.65299,7.94825 3.38118,13.52845 0.6049,4.63539 0.79881,5.46589 2.046,8.7625 l 1.37777,3.64176 0.003,3.74587 0.003,3.74586 -1.71891,3.77298 c -1.16002,2.54624 -1.86141,3.77381 -2.15721,3.77554 -0.29321,0.002 -0.9837,-1.15631 -2.08594,-3.49839 z"/>

    <path id="lats1" title="lats1" class="muscle" d="m 266.23702,114.58825 c -0.83491,-1.85259 -1.1101,-2.95068 -1.56554,-6.24681 -0.38868,-2.81304 -0.84535,-4.82162 -1.53977,-6.77237 l -0.9872,-2.773256 -2.90968,-1.73134 c -1.60032,-0.952236 -2.94041,-1.753201 -2.97796,-1.779922 -0.0731,-0.05199 8.50964,-16.074345 9.14711,-17.075956 0.3799,-0.596919 0.38321,-0.595948 4.98656,1.462164 l 4.6064,2.059479 1.89929,-0.569687 c 1.04461,-0.313327 1.95173,-0.517246 2.01582,-0.453152 0.15102,0.151019 -2.3667,18.189635 -2.67162,19.141265 -0.1275,0.397905 -1.83343,2.942675 -3.79097,5.655045 l -3.55915,4.93159 -0.64746,3.20032 c -0.3561,1.76018 -0.72518,3.20032 -0.82016,3.20032 -0.095,0 -0.62854,-1.01146 -1.18567,-2.24769 z"/>
    <path id="lats2" title="lats2" class="muscle" d="m 240.44967,117.17917 c -0.0656,-0.11326 -0.33783,-1.68869 -0.60497,-3.50096 l -0.48571,-3.29502 -3.71877,-5.04764 -3.71877,-5.04765 -1.15834,-9.642654 c -0.63709,-5.303459 -1.1126,-9.689729 -1.05668,-9.747267 0.0559,-0.05754 1.18726,0.105529 2.51409,0.36237 l 2.41241,0.466982 3.77109,-1.960192 c 2.0741,-1.078106 3.88551,-1.889477 4.02536,-1.803046 0.13985,0.08643 1.30343,2.102866 2.58574,4.480967 1.28231,2.3781 3.32294,6.146334 4.53474,8.373853 l 2.20326,4.050034 -3.95841,3.638348 -3.9584,3.638345 -0.002,4.2895 -0.002,4.2895 -1.40269,3.33024 c -1.29882,3.08364 -1.66656,3.66414 -1.97917,3.12429 z" />
    
      <path id="upper_back1" title="upper_back1" class="muscle" d="m 269.50524,77.293939 c -4.01494,-1.852016 -4.1207,-1.922668 -4.19509,-2.802528 -0.042,-0.496438 0.41387,-3.527692 1.01298,-6.736119 0.92532,-4.955297 1.2276,-6.078907 2.00794,-7.46359 l 0.91863,-1.630086 5.48218,4.39164 c 3.01519,2.415402 5.65322,4.559392 5.86228,4.764422 0.32358,0.317339 0.28819,0.978427 -0.23789,4.444876 l -0.618,4.072093 -1.40024,1.441571 c -1.38885,1.429846 -1.41371,1.441474 -3.05713,1.429603 -1.45671,-0.01052 -2.15451,-0.241512 -5.77566,-1.911882 z"/>
    <path id="upper_back2" title="upper_back2" class="muscle" d="m 229.84481,77.538721 -1.47798,-1.67907 -0.24993,-2.92023 c -0.13747,-1.606127 -0.16919,-3.696623 -0.0705,-4.645546 l 0.17945,-1.725316 2.94665,-1.477804 c 2.68409,-1.346118 3.14959,-1.700086 5.224,-3.972324 1.25253,-1.371986 2.37104,-2.494521 2.48556,-2.494521 0.11453,0 0.82969,1.513651 1.58926,3.363667 l 1.38102,3.363667 0.19708,5.092914 0.19707,5.092914 -4.08137,1.841006 c -3.29742,1.487384 -4.34653,1.840881 -5.46185,1.840359 -1.34569,-6.31e-4 -1.41776,-0.04298 -2.85847,-1.679716 z"/>

    <path id="lower_back" title="lower_back" class="muscle" d="m 251.8016,125.64602 -1.7777,-2.40611 -3.85129,-1.72824 c -2.11821,-0.95053 -3.88975,-1.76058 -3.93675,-1.80011 -0.047,-0.0395 0.6017,-1.44203 1.44157,-3.11668 l 1.52703,-3.04481 v -3.99054 -3.99055 l 1.20996,-2.58924 1.20996,-2.58924 3.53578,-1.771784 3.53578,-1.771783 3.05233,1.908426 3.05233,1.908421 1.12594,3.28392 c 1.05451,3.07556 1.12595,3.47814 1.12595,6.34524 v 3.06132 l 1.38937,2.57728 c 1.00239,1.85942 1.36568,2.81795 1.30428,3.44131 -0.0831,0.84325 -0.14292,0.87851 -2.49159,1.46727 -2.56958,0.64415 -2.57658,0.64923 -8.7142,6.32352 l -0.96105,0.8885 z">

    <path id="quads1" title="quads1" class="muscle" d="m 69.187812,176.179 -3.106064,-6.93864 -0.92201,-4.69533 -0.92201,-4.69532 0.03325,-5.48641 0.03326,-5.48641 2.748588,-4.04807 c 1.557058,-2.29322 2.805307,-3.9405 2.879424,-3.7999 0.424477,0.80518 3.183683,11.03546 4.484097,16.62564 l 1.528218,6.56946 -1.353133,9.07003 c -1.301298,8.72258 -1.544097,9.8236 -2.16633,9.8236 -0.07217,0 -1.528956,-3.12239 -3.237291,-6.93865 z"/>
    <path id="quads2" title="quads2" class="muscle" d="m 103.32212,173.22708 -1.23267,-10.13885 2.66696,-10.71435 c 2.47969,-9.96202 2.71056,-10.71435 3.28795,-10.71435 0.455,0 1.24408,0.83493 2.95213,3.12368 l 2.33114,3.12367 v 7.79944 7.79943 l -1.28862,4.15058 c -0.70874,2.28283 -2.42376,6.74937 -3.81115,9.92567 -3.58232,8.20137 -3.35457,8.40355 -4.90574,-4.35492 z"/>
    <path id="quads3" title="quads3" class="muscle" d="m 63.207476,175.64328 -3.09206,-8.57929 0.01294,-4.00131 c 0.0081,-2.49066 0.254114,-5.73881 0.651749,-8.60345 0.635848,-4.58079 0.642355,-4.60255 1.402343,-4.69095 l 0.76353,-0.0888 -0.568679,1.89555 -0.568678,1.89555 1.050348,7.54134 1.050347,7.54135 2.514225,6.18412 2.514225,6.18412 -0.55209,1.6539 c -0.488655,1.46386 -0.640219,1.6535 -1.319112,1.65053 -0.744172,-0.003 -0.859139,-0.25895 -3.859084,-8.58266 z"/>
    <path id="quads4" title="quads4" class="muscle" d="m 109.59452,182.95685 c -0.34954,-1.24843 -0.29867,-1.44522 2.69514,-10.42678 l 3.0514,-9.15434 v -6.89761 -6.8976 l 0.84234,0.85737 0.84234,0.85737 0.18772,8.91664 0.18773,8.91664 -2.89968,7.44878 c -1.59483,4.09683 -2.89969,7.4945 -2.89969,7.55038 0,0.0559 -0.37148,0.1016 -0.82552,0.1016 -0.73084,0 -0.86637,-0.14593 -1.18178,-1.27245 z"/>

    <path id="trapezius1" title="trapezius1" class="muscle" d="m 248.88589,84.789969 -4.66311,-9.429974 -0.48434,-6.605033 -0.48435,-6.605033 -2.00779,-3.401861 c -1.10429,-1.871023 -1.93227,-3.477383 -1.83997,-3.569689 0.0923,-0.0923 3.42318,-1.09883 7.40193,-2.236722 l 7.23411,-2.068894 7.32079,2.073691 c 4.02643,1.14053 7.3833,2.136205 7.45971,2.21261 0.0764,0.07641 -0.7659,1.870017 -1.87178,3.985803 l -2.01069,3.846884 -0.97046,7.63015 -0.97047,7.63015 -4.20152,7.902063 c -2.90348,5.460735 -4.36333,7.92736 -4.72525,7.983946 -0.42393,0.06628 -1.41215,-1.714765 -5.18681,-9.348091 z"/>
    <path id="trapezius2" title="trapezius2" class="muscle" d="m 259.37357,50.55139 -4.2426,-1.318425 v -2.673336 -2.673337 l 1.07863,-0.289896 c 2.32073,-0.62373 2.09491,-0.787776 5.22515,3.795836 1.59527,2.335958 2.9005,4.309843 2.9005,4.386412 0,0.267193 -0.74813,0.08215 -4.96168,-1.227254 z"/>
    <path id="trapezius3" title="trapezius3" class="muscle" d="m 242.91895,51.592244 c 0.30958,-0.391305 1.97104,-2.354931 3.69214,-4.363611 l 3.12928,-3.652148 h 1.54477 1.54477 v 2.86525 2.865249 l -1.07863,0.291704 c -1.72713,0.467088 -8.21597,2.319026 -8.83233,2.520778 -0.55873,0.182889 -0.55873,0.179016 0,-0.527222 z"/>
    <path id="trapezius4" title="trapezius4" class="muscle" d="m 93.193276,60.147203 c 0,-0.344995 3.065109,-7.336676 3.349069,-7.639411 0.06663,-0.07103 1.410992,1.155859 2.987476,2.726428 3.262219,3.249981 3.342969,2.95178 -1.009243,3.727443 -1.57864,0.28135 -3.42309,0.748519 -4.098778,1.038153 -0.942291,0.403913 -1.228524,0.438252 -1.228524,0.147387 z"/>
    <path id="trapezius5" title="trapezius5" class="muscle" d="m 80.02289,59.258056 c -2.102262,-0.516275 -3.877872,-0.994258 -3.945798,-1.062184 -0.06793,-0.06793 1.096111,-1.338047 2.586752,-2.82249 2.629752,-2.618818 2.718315,-2.678183 2.981625,-1.998628 0.149253,0.385196 0.867041,1.978523 1.595085,3.540726 0.728043,1.562203 1.323715,2.95363 1.323715,3.092061 0,0.348286 -0.217313,0.312421 -4.541379,-0.749485 z"/>

    <path id="triceps1" title="triceps1" class="muscle" d="m 216.72933,99.736939 c 0.6469,-1.528276 1.58455,-7.690102 1.58455,-10.412963 v -0.876654 h -2.09142 -2.09142 l -0.64861,2.516794 c -0.46929,1.820976 -0.64654,3.322748 -0.6411,5.431957 0.007,2.784904 -0.0242,2.93592 -0.70145,3.379694 -0.38993,0.255493 -0.77824,0.464533 -0.8629,0.464533 -0.0847,0 -0.15394,-1.609982 -0.15394,-3.577736 v -3.577735 l 2.00348,-5.799962 c 1.15685,-3.34901 2.65624,-7.033322 3.54818,-8.718601 l 1.5447,-2.918638 2.85166,-1.499092 c 1.56842,-0.824501 3.23998,-1.503738 3.71457,-1.509416 l 0.8629,-0.01032 1.19326,5.168409 1.19325,5.168409 -1.44138,4.682381 c -1.28777,4.183388 -1.72146,5.164403 -4.06959,9.20553 l -2.62821,4.523151 -1.9333,0.007 -1.93331,0.007 z"/>
    <path id="triceps2" title="triceps2" class="muscle" d="m 286.58645,97.852344 -2.6291,-3.508534 -1.76733,-5.68358 -1.76732,-5.68358 0.87433,-4.527412 c 0.48088,-2.490076 0.94087,-4.81864 1.02221,-5.174587 0.23656,-1.035248 1.41433,-0.820735 4.68885,0.85401 l 2.96995,1.518967 2.46397,4.889771 c 2.22573,4.416984 2.59388,5.390368 3.80758,10.067175 l 1.3436,5.177404 -0.44958,2.213322 -0.44959,2.21332 -0.76455,-0.466189 c -0.75594,-0.46094 -0.76596,-0.510175 -0.88934,-4.370574 -0.0824,-2.577904 -0.2906,-4.417417 -0.61285,-5.414459 l -0.48806,-1.510076 h -2.14611 c -1.18036,0 -2.14611,0.03978 -2.14611,0.08839 0,1.501866 1.32824,9.977929 1.73444,11.0682 0.31165,0.836478 0.56663,1.580728 0.56663,1.653888 0,0.0732 -0.61482,0.12629 -1.36626,0.11806 l -1.36626,-0.015 z"/>

    <path id="shoulder3" title="shoulder3" class="muscle" d="m 216.01281,74.150808 c 0,-0.145208 0.25861,-2.132942 0.5747,-4.417185 0.54478,-3.936928 0.65213,-4.30293 2.06186,-7.029505 l 1.48717,-2.876336 3.76271,-1.76955 3.76272,-1.76955 4.58326,-0.454514 c 2.5208,-0.249982 4.64029,-0.397493 4.70998,-0.327802 0.0697,0.06969 -0.0512,0.873904 -0.26876,1.787139 l -0.39547,1.660429 -4.44689,2.812845 c -2.44578,1.547065 -4.55918,2.925142 -4.69643,3.062393 -0.13725,0.137251 -0.5307,1.395113 -0.87434,2.79525 l -0.62479,2.545702 -4.45832,1.967488 c -2.45207,1.082119 -4.62011,2.037176 -4.81786,2.12235 -0.19775,0.08517 -0.35954,0.03606 -0.35954,-0.109154 z"/>
    <path id="shoulder4" title="shoulder4" class="muscle" d="m 287.80485,72.041008 c -2.4698,-1.350144 -3.40218,-1.714601 -4.38641,-1.714601 h -1.24991 v -2.541561 -2.541561 l -2.93274,-1.533687 c -2.03185,-1.06256 -3.71063,-2.231143 -5.46504,-3.804161 -2.25337,-2.020391 -2.5323,-2.379401 -2.5323,-3.259408 v -0.988934 l 4.2426,0.01254 4.24259,0.01254 4.2927,2.216617 4.2927,2.216617 1.83934,4.170686 1.83933,4.170687 -0.23554,2.566003 c -0.12955,1.411301 -0.36498,2.603536 -0.52318,2.64941 -0.1582,0.04587 -1.69906,-0.688163 -3.42414,-1.631194 z"/>

    <path id="forearm3" title="forearm3" class="muscle" d="m 196.56177,137.77358 c -1.01782,-0.23854 -1.92481,-0.50792 -2.01551,-0.59863 -0.0907,-0.0907 0.15647,-0.98378 0.5493,-1.9846 0.39283,-1.00082 1.898,-5.71362 3.34481,-10.47289 1.814,-5.96709 3.5046,-10.39675 5.44616,-14.26993 2.91424,-5.81354 4.97397,-9.24549 5.54881,-9.24549 0.18251,0 0.57886,0.54219 0.88079,1.20485 0.42253,0.92734 0.83641,1.17071 1.79693,1.05664 0.99763,-0.11849 1.36375,-0.52501 1.82524,-2.02668 l 0.5773,-1.878459 0.0492,1.995869 c 0.0483,1.95853 0.08,1.99586 1.69289,1.99586 1.59572,0 1.64365,0.0531 1.64365,1.82003 0,2.85979 -1.92443,6.53919 -8.61781,16.47673 -4.43825,6.58939 -6.59702,10.26861 -7.53655,12.84464 -1.4402,3.94879 -1.45343,3.95665 -5.18525,3.08206 z"/>
    <path id="forearm4" title="forearm4" class="muscle" d="m 305.82741,133.48808 c -0.9986,-2.13088 -4.21898,-7.46688 -7.15639,-11.85778 -5.34234,-7.98582 -8.44892,-14.12937 -8.44892,-16.70852 0,-1.25454 0.14035,-1.37166 1.64366,-1.37166 1.00633,0 1.64038,-0.22761 1.63523,-0.58702 -0.0107,-0.74792 -1.29501,-8.623202 -1.68484,-10.331531 -0.17696,-0.775502 -0.0978,-1.291441 0.19802,-1.291441 0.66262,0 0.85462,0.821527 1.5118,6.468555 0.46527,3.998107 0.73106,4.943667 1.551,5.517977 1.37346,0.96201 1.50775,0.91214 2.68857,-0.99847 l 1.04544,-1.69155 1.85201,2.91287 c 2.50268,3.93624 7.45116,15.95697 10.2652,24.93597 1.26778,4.04519 2.30505,7.46535 2.30505,7.60035 0,0.41549 -2.88296,1.27657 -4.27402,1.27657 -1.18875,0 -1.49196,-0.37509 -3.13181,-3.87432 z"/>

    <path id="neck" title="neck" class="muscle" d="m 88.323357,72.965088 c -0.04882,-4.894938 -0.836851,-6.571194 -4.110854,-8.744382 -2.938058,-1.950197 -2.473751,-2.572485 0.815588,-1.093091 l 2.085501,0.937963 0.141606,-1.083153 c 0.07788,-0.595735 -1.004573,-4.127161 -2.405457,-7.847614 -1.400886,-3.720453 -2.49076,-6.830163 -2.421944,-6.910467 0.06882,-0.0803 1.624913,0.309542 3.457994,0.866323 l 3.332874,1.012329 2.903318,-0.980466 c 1.596825,-0.539256 2.988548,-0.895235 3.092718,-0.791065 0.395342,0.395342 -1.507529,6.274137 -3.010925,9.302059 -1.280352,2.578698 -2.087435,5.999316 -1.415517,5.999316 0.0839,0 1.705869,-0.528317 3.604367,-1.174038 4.186919,-1.424063 5.237162,-1.459934 2.292989,-0.07832 -1.192594,0.559651 -3.25303,2.0008 -4.578747,3.202554 -2.362729,2.141799 -2.411099,2.239305 -2.44612,4.930958 -0.01965,1.510273 -0.320563,3.485595 -0.668695,4.389604 -0.621843,1.614764 -0.633596,1.580694 -0.668696,-1.938513 z"/>
    
    <path id="adductors1" title="adductors1" class="muscle" d="m 79.881651,175.87084 c -0.78348,-6.30146 -4.170784,-21.9874 -6.872077,-31.82325 -1.998746,-7.27775 -2.354562,-9.99817 -1.689927,-12.92046 0.290592,-1.27769 0.371322,-1.22016 3.95384,2.81769 2.011455,2.2671 5.29972,6.52433 7.307254,9.46051 l 3.650062,5.33851 -1.788859,12.4699 c -0.983873,6.85845 -2.274489,14.07149 -2.868035,16.02898 l -1.079177,3.55908 z"/>
    <path id="adductors2" title="adductors2" class="muscle" d="m 95.338547,172.48315 c -0.580287,-3.68997 -1.453163,-8.77697 -1.939724,-11.30443 -0.519684,-2.69953 -0.884657,-6.63651 -0.884657,-9.54283 v -4.94742 l 5.018598,-6.57987 c 4.064716,-5.32923 8.940376,-10.60544 9.351856,-10.12014 0.0443,0.0522 -0.11201,2.35343 -0.34726,5.11384 -0.30503,3.57926 -1.29294,8.36139 -3.44402,16.67133 -1.65896,6.40883 -3.583573,14.82231 -4.276909,18.69663 -1.800696,10.06218 -2.177733,10.2804 -3.477884,2.01289 z"/>
  </g>
  <path id="human_body" title="human_body" class="muscle" d="m 61.622749,273.4225 -2.05887,-0.0564 -3.5,-1.19356 -3.5,-1.19356 -0.31933,-2.24827 -0.31932,-2.24827 1.88781,-2.75173 1.88781,-2.75173 2.18152,-5.38335 2.18151,-5.38335 -0.003,-3.11665 -0.003,-3.11665 -1.95317,-10.0595 -1.95318,-10.0595 0.38565,-1.9405 0.38564,-1.9405 1.0662,-6 1.0662,-6 1.50435,-7.70784 1.50431,-7.70784 v -4.97706 -4.97706 l -1.05315,-2.76998 -1.05314,-2.76999 -0.89123,-7.04511 -0.89123,-7.04512 0.98615,-10.47718 0.98614,-10.47718 2.84355,-8.52282 2.84354,-8.52282 0.71988,-14.11018 0.71988,-14.110169 -1.56516,-2.88983 -1.56516,-2.88982 -0.04,1.58052 -0.04,1.58053 -2.49582,4.91947 -2.49581,4.919479 -0.0262,1.5 -0.0261,1.5 -1.87721,4.134 -1.87721,4.134 -3.79819,3.366 -3.79819,3.366 -3.24512,3.45203 -3.24513,3.45202 -2.99762,6.04798 -2.99763,6.04797 -2.17723,7.22494 -2.17723,7.22494 -1.33886,1.11115 -1.33885,1.11115 -0.9305,-0.57508 -0.93049,-0.57508 -1.23576,1.48899 -1.23575,1.48899 h -1.91937 -1.91936 l -2.02068,-1.88255 -2.02068,-1.88255 1.75976,-3.86745 1.75976,-3.86745 0.38606,-0.75 0.38607,-0.75 h -2.58333 -2.58333 v -1.04796 -1.04797 l 2.75,-2.40658 2.75,-2.40657 2.53588,-1.07809 2.53589,-1.07809 3.09783,-5.21737 3.09783,-5.21737 3.72093,-10 3.72093,-10 1.01535,-2 1.01535,-2 2.76518,-3.000004 2.76518,-2.999995 0.65671,-4.62071 0.65671,-4.62071 2.00233,-3.87929 2.00233,-3.87929 -0.57633,-3.17964 -0.57633,-3.17964 1.15434,-4.58432 1.15435,-4.58431 2.9072,-2.44625 2.90721,-2.44626 3.47056,-0.53979 3.47057,-0.53979 3.54422,-0.55361 3.54422,-0.55361 3.08426,-2.75578 3.08425,-2.75578 0.48543,-5.05195 0.48543,-5.05195 -1.52806,-2.38866 -1.52805,-2.38866 8.9e-4,-5.5 8.9e-4,-5.5 1.10571,-4.76328 1.10571,-4.76327 3.64429,-0.98131 3.64429,-0.9813 5.20995,1.54719 5.20995,1.54718 1.9091,3.13927 1.909111,3.13928 -0.017,7.73647 -0.017,7.73648 -1.438801,1.19409 -1.43879,1.19409 v 3.8305 3.83051 l 1.15379,2.53229 1.153791,2.5323 4.16193,2.01475 4.16194,2.01476 h 3.21639 3.2164 l 3.44598,1.43983 3.44599,1.43982 2.01816,3.31018 2.01815,3.31017 0.004,6.28984 0.004,6.28984 1.85939,3.71016 1.85939,3.71016 0.67304,4.37893 0.67305,4.37893 3.26881,3.818869 3.26881,3.81887 4.33251,11.8022 4.33251,11.8022 2.48618,4.67836 2.48618,4.67836 2.63007,1.1171 2.63006,1.1171 2.75,2.40657 2.75,2.40658 v 1.04797 1.04796 h -2.58333 -2.58334 l 0.38607,0.75 0.38606,0.75 1.75977,3.86745 1.75976,3.86745 -2.02068,1.88255 -2.02068,1.88255 h -1.91937 -1.91937 l -1.19556,-1.44056 -1.19556,-1.44056 -1.36739,0.52472 -1.36739,0.52472 -2.42315,-4.83416 -2.42314,-4.83416 -0.6745,-3.71184 -0.67451,-3.71185 -2.53645,-5.78815 -2.53645,-5.78816 -7.82756,-7.55742 -7.82755,-7.55742 -1.20549,-4.44258 -1.2055,-4.44258 -2.39234,-5.014354 -2.39287,-5.014345 v -1.23565 -1.23565 h -0.98095 -0.98095 l -0.69753,2.75 -0.69754,2.75 -0.008,2.999999 -0.008,3 0.79149,10.5 0.79149,10.5 2.35576,8 2.35576,8 1.0321,6.5 1.0321,6.5 -0.008,8.5 -0.008,8.5 -1.44876,6 -1.44876,6 -0.0356,5.61639 -0.0356,5.61638 2.56521,13.38362 2.5652,13.38361 -0.64098,7.83082 -0.64098,7.83081 -1.43636,5.51456 -1.43636,5.51456 2.53848,7.03725 2.53847,7.03725 2.04587,2.87316 2.04587,2.87315 -0.33442,1.73652 -0.33442,1.73651 -2.98779,0.63939 -2.98779,0.63939 -3.71482,0.11832 -3.71481,0.11831 -1.11179,-2.0774 -1.11179,-2.0774 -1.35987,-5.1726 -1.35987,-5.1726 1.09123,-6.5 1.09123,-6.5 -1.59714,-5 -1.59714,-5 -1.98091,-5.5 -1.98091,-5.5 -1.02371,-11 -1.02371,-11 -1.553001,-5.9601 -1.554,-5.9601 v -1.88466 -1.88466 l -1.89108,-6.65524 -1.89108,-6.65524 -1.73933,-11.16232 -1.73934,-11.16232 0.64947,-2.58768 0.64946,-2.58768 h -1.91156 -1.91156 l -0.0824,5.85497 -0.0824,5.85496 -1.55123,9.63998 -1.55123,9.63998 -1.96094,6.25506 -1.96094,6.25505 -0.0129,2.72976 -0.0129,2.72977 -1.41719,3.77023 -1.4172,3.77024 -0.49236,9.57745 -0.49237,9.57746 -3.18518,8.92254 -3.18518,8.92255 -0.49851,4.70158 -0.49851,4.70159 1.04422,4.86902 1.04422,4.86903 -1.98213,6.42939 -1.98213,6.42939 -1.65997,1.25 -1.65997,1.25 z m -0.63704,-3.24913 4.42183,-0.19443 0.85747,-3 0.85748,-3 0.97598,-3.08562 0.97598,-3.08563 -1.01699,-5.36259 -1.017,-5.36259 -0.8241,-0.55179 -0.82411,-0.55178 -1.78444,-7 -1.78443,-7 -0.65859,-11 -0.6586,-11 -1.25054,7 -1.25055,7 2.02939,10.94289 2.02939,10.94289 v 3.24809 3.2481 l -0.97283,0.60124 -0.97282,0.60124 -1.13057,4.19861 -1.13057,4.19861 -1.89661,2.66353 -1.8966,2.66354 v 1.0123 1.01229 l 1.25,0.52777 1.25,0.52776 z m 56.387191,0.29026 4.19098,-0.0153 1.32906,-0.84257 1.32906,-0.84256 -2.58883,-4.89213 -2.58882,-4.89212 -1.66599,-4 -1.66599,-4 0.26638,-4 0.26639,-4 1.39459,-6 1.39459,-6 -0.10354,-7 -0.10353,-7 -0.68569,-3 -0.68569,-3 -0.57443,9 -0.57444,9 -1.7898,8.5 -1.78981,8.5 -1.34985,1.59873 -1.34984,1.59873 -0.124,5.40127 -0.124,5.40127 0.97619,4.07706 0.97619,4.07707 0.72492,1.17293 0.72491,1.17294 z m -50.247071,-39.98469 0.66786,-9.5 1.7515,-5 1.75149,-5 1.97313,-3.88565 1.97312,-3.88565 -1.33952,-0.84904 -1.33953,-0.84903 -1.1666,-0.0153 -1.16659,-0.0153 -1.98782,-2.72883 -1.98781,-2.72883 -2.06232,2.47883 -2.06232,2.47883 -0.002,9.5 -0.002,9.5 0.91598,7.04512 0.91597,7.04511 1.2502,2.95489 1.2502,2.95488 z m 44.937161,8.50055 0.70711,-0.43701 1.337,-7.78177 1.337,-7.78177 0.0599,-11.14014 0.0599,-11.14015 -1.97896,-2.19159 -1.97896,-2.19159 -2.02104,2.48163 -2.02104,2.48163 -2,0.38842 -2,0.38842 0.19636,1.46169 0.19637,1.46168 3.12613,8.5 3.12613,8.5 0.57351,8.71879 0.5735,8.71878 z m -41.859501,-5.50055 1.99833,-4.5 1.33263,-6 1.33263,-6 0.47352,-4.73183 0.47351,-4.73184 -0.81038,0.50084 -0.81038,0.50085 -2.02492,5.41209 -2.02493,5.4121 -1.03981,8.29266 -1.03981,8.29266 0.0706,1.02624 0.0706,1.02623 z m 39.481901,4 h 0.4778 l -0.62102,-6.25 -0.62103,-6.25 -1.94033,-6.5 -1.94034,-6.5 -1.39,-2.46772 -1.39,-2.46771 0.46771,4.96771 0.46771,4.96772 0.89041,4.596 0.89041,4.59601 2.11544,5.65399 2.11543,5.654 z m -33.219841,-39 1.3216,-2.5 0.61931,-2.59817 0.61931,-2.59816 -2.42806,-1.1063 -2.42805,-1.10629 -1.69295,-2.58377 -1.69295,-2.58376 -2.02465,2.17321 -2.02466,2.17321 -1.33529,-1.82611 -1.33528,-1.82612 -0.011,2.44113 -0.011,2.44113 -0.65518,4 -0.65518,4 1.66618,-1.37244 1.66619,-1.37245 v -1.37755 -1.37756 h 1 1 l 0.0222,1.75 0.0222,1.75 1.90937,2.48506 1.90937,2.48506 0.72097,-0.72097 0.72098,-0.72098 -0.0857,-3.01408 -0.0857,-3.01409 h 0.93311 0.93312 l 0.04,4.25 0.04,4.25 z m 26.641411,-2 0.65653,-4.5 0.16551,3 0.1655,3 0.8458,1.3343 0.84581,1.33429 2.13888,-2.71915 2.13889,-2.71916 0.005,-2.11514 0.005,-2.11514 2.56769,3 2.56768,3 -0.559,-2.5 -0.55899,-2.5 -0.0137,-4.4725 -0.0136,-4.47251 -1.66527,2.37751 -1.66528,2.37751 -1.76271,-2.17686 -1.76272,-2.17686 -1.32201,1.85178 -1.32201,1.85177 -2.81831,1.82985 -2.818311,1.82985 0.57629,2.29613 0.576291,2.29612 1.1853,2.79411 1.18529,2.7941 z m -24.705151,-8 h 0.93793 l -0.69694,-7.69096 -0.69693,-7.69097 -0.66572,-1.05903 -0.66571,-1.05904 -0.71765,4 -0.71765,4 -0.0576,3.55 -0.0576,3.55 1.2,1.2 1.2,1.2 z m 21.53962,0 h 0.877561 l 1.23962,-1.49365 1.23962,-1.49365 -0.69564,-6.49583 -0.69565,-6.49583 -0.79391,-0.49066 -0.79391,-0.49067 -0.616621,3.73015 -0.61661,3.73014 -0.011,4.75 -0.011,4.75 z m -32.85037,-4 h 0.83804 l 0.5745,-1.81009 0.5745,-1.81009 -2.51821,-6.19735 -2.51821,-6.19736 -1.04644,-7.5236 -1.04643,-7.52359 0.62492,-1.96896 0.62492,-1.96896 h -0.93146 -0.93146 l -0.63593,4.63957 -0.63592,4.63957 v 4.30816 4.30816 l 3.09457,8.55227 3.09457,8.55227 z m 43.710341,0 h 0.80029 l 2.9811,-7.75 2.98109,-7.75 -0.20311,-8.90311 -0.20311,-8.90311 -1.04689,-1.04689 -1.04689,-1.04689 v 7.3025 7.30249 l -3.03969,9.07288 -3.0397,9.07287 0.50831,1.32463 0.50831,1.32463 z m -37.966021,-1.43817 0.48347,-0.48347 1.36344,-9.17249 1.36344,-9.17248 -1.52996,-6.59706 -1.52996,-6.59706 -1.54102,-5.30092 -1.54102,-5.30092 -2.90175,4.28129 -2.90175,4.28128 -0.0182,5.11351 -0.0182,5.11351 0.95215,5.02068 0.95216,5.02068 3.19186,7.13846 3.19186,7.13846 z m 32.280331,0.43817 h 0.67504 l 2.5264,-5.75 2.52639,-5.75 1.23681,-3.89874 1.23681,-3.89875 0.12336,-8.10125 0.12336,-8.10126 -2.43806,-3.25 -2.43806,-3.25 h -0.68852 -0.68852 l -2.68969,10.73405 -2.6897,10.73405 1.25467,10.26595 1.25467,10.26595 z m -23.468971,-5.65009 1.23231,-4.15009 1.7999,-12.53999 1.7999,-12.53999 -3.85577,-5.59841 -3.85577,-5.5984 -3.8107,-4.21152 -3.81071,-4.21151 -0.19854,3 -0.19855,3 0.0443,1 0.0443,1 2.05056,7.5 2.05057,7.5 1.96155,9 1.96155,9 0.77636,6 0.77635,6 z m 15.36316,0.99272 0.73128,-0.84263 1.22579,-7 1.225791,-7 3.09611,-12 3.09612,-12 0.43802,-5.5 0.43802,-5.5 -2.70862,2.5 -2.70862,2.5 -4.889961,6.46594 -4.88995,6.46594 v 4.23484 4.23484 l 0.91141,4.79922 0.91142,4.79922 1.19596,7.34263 1.19595,7.34263 z m 54.553981,-25.34263 h 0.5 v -0.5 -0.5 h -0.5 -0.5 v 0.5 0.5 z m -124.043811,-2.96364 1.4562,-1.20854 0.99713,0.61627 0.99714,0.61626 1.05506,-4.28017 1.05506,-4.28018 0.95633,-3.44004 0.95634,-3.44004 -1.08717,-1.30996 -1.08717,-1.30996 h -1.21704 -1.21704 l -1.1224,2.46339 -1.1224,2.4634 -3.95405,2.49608 -3.95406,2.49609 -0.58544,0.94726 -0.58544,0.94726 2.14756,-0.5616 2.14756,-0.5616 -0.5033,2.63283 -0.50329,2.63282 1.85711,0.58942 1.85712,0.58943 v 1.05505 1.05506 z m 124.179001,-0.52869 1.50767,-1.50767 h 0.92857 0.92857 v -2.60699 -2.60699 l 1.55194,0.59554 1.55194,0.59553 -0.636,-1.02906 -0.636,-1.02907 -3.95406,-2.49609 -3.95406,-2.49608 -1.12239,-2.4634 -1.1224,-2.46339 -0.58949,0.0318 -0.58948,0.0318 -1.70859,1.29815 -1.70858,1.29816 0.95019,3.42004 0.9502,3.42004 1.03567,4.20815 1.03566,4.20815 1.37157,-0.52632 1.37158,-0.52633 0.66491,1.07585 0.66491,1.07584 z m -89.261151,-3.10231 1.12596,-0.43668 2.44295,-3.57781 2.44295,-3.57782 0.41801,-5.77893 0.41801,-5.77893 -1.02705,-0.63475 -1.02705,-0.63475 -2.05164,6.25715 -2.05165,6.25716 -0.90822,4.17102 -0.90822,4.17101 z m 53.309011,-0.40536 h 0.47586 l -0.6595,-3.25 -0.6595,-3.25 -2.09996,-6.69776 -2.09997,-6.69777 -0.81999,0.50678 -0.81999,0.50679 v 5.90618 5.90619 l 3.10359,3.5348 3.10359,3.53479 z m -29.708141,-3 h 0.73003 l 0.65531,-8.52527 0.6553,-8.52527 -0.63558,-3.97473 -0.63559,-3.97473 h -2.7904 -2.79041 l -1.73914,-0.66737 -1.73914,-0.66737 0.67647,5.75564 0.67646,5.75565 2.07184,6.16173 2.07183,6.16172 1.0315,1.25 1.0315,1.25 z m 5.18911,0 h 0.90705 l 1.92356,-4.48748 1.92356,-4.48748 1.54986,-8.17022 1.54987,-8.17023 -0.35803,-0.35803 -0.35802,-0.35802 -3.90094,0.80935 -3.90093,0.80936 -0.57935,4.29759 -0.57935,4.29758 0.45784,7.90879 0.45783,7.90879 z m 12.300401,-13.28049 6.79324,-6.72672 -0.34563,-6.74639 -0.34563,-6.7464 -0.0332,-7.58211 -0.0332,-7.582109 1.89624,-3.51717 1.89623,-3.51717 -0.68811,-2.74164 -0.6881,-2.74164 -1.70813,0.73871 -1.70813,0.73871 -3.16438,1.0701 -3.16438,1.0701 -0.46783,15.032109 -0.46784,15.03211 -1.513151,7.5 -1.51315,7.5 -0.76904,2.97311 -0.76904,2.97311 z m -24.607431,4.14271 0.35699,0.13778 -0.55167,-1.43762 -0.55167,-1.43762 -2.14332,-12.08013 -2.14333,-12.08013 0.338,-10.900269 0.33801,-10.90027 -3.5,-1.14696 -3.5,-1.14695 -1.36669,-0.55726 -1.3667,-0.55725 0.50209,3.87223 0.50209,3.87223 1.79627,4.58189 1.79627,4.58189 -1.35993,11.806689 -1.35993,11.80669 5.92826,5.72364 5.92827,5.72363 z m -41.75283,-1.4266 0.89584,-0.55365 v -1.52608 -1.52608 l 7.83121,-7.66491 7.83121,-7.6649 1.27857,-2.38939 1.27857,-2.38938 0.82041,-2.86062 0.82042,-2.86061 h -0.46232 -0.46231 l -3.59001,1.5 -3.59,1.5 h -0.75288 -0.75287 l -0.63008,-3.15039 -0.63008,-3.15039 -2.08754,1.8892 -2.08755,1.8892 -1.08066,2.01119 -1.08065,2.01119 -4.23215,11 -4.23216,11 2.0096,1.74464 2.0096,1.74464 z m 106.019651,-0.74501 1.87619,-1.1717 v -0.76428 -0.76427 l -4.11036,-11.24518 -4.11036,-11.24518 -2.44053,-3.25 -2.44053,-3.25 h -0.94911 -0.94911 v 2.44098 2.44099 l -0.95598,0.59083 -0.95598,0.59083 -3.69756,-1.54494 -3.69756,-1.54494 -0.34354,0.34354 -0.34355,0.34355 1.58262,4.64474 1.58263,4.64474 5.89768,5.10925 5.89768,5.10925 3.14058,4.84674 3.14059,4.84675 z m -57.480801,-14.79396 1.14301,0.10335 0.60699,-1.58179 0.60699,-1.58178 v -2.73082 -2.73082 l -5.99423,0.0626 -5.99422,0.0626 0.008,1 0.008,1 0.58297,2.17351 0.58298,2.17352 3.65337,0.97313 3.65337,0.97314 z m 7.72819,-0.46213 3.1288,-0.67114 1.75,-0.91687 1.750001,-0.91688 v -1.38302 -1.38303 l 0.51149,-1.33294 0.5115,-1.33294 -5.585461,0.15845 -5.58546,0.15844 -0.49052,0.49052 -0.49052,0.49052 0.68569,3.65502 0.68568,3.65502 z m -12.28632,-9.43452 h 3.75154 l 1.58179,-0.60699 1.58179,-0.60699 v -4.36633 -4.366329 l -5.99801,0.22332 -5.99801,0.22332 -0.002,4.083329 -0.002,4.08334 0.66667,0.66666 0.66666,0.66667 z m 13,0 h 3.75154 l 1.58179,-0.60699 1.581791,-0.60699 -0.003,-4.14301 -0.003,-4.143009 -5.997431,-0.17393 -5.99737,-0.17393 v 4.257269 4.25726 l 0.66666,0.66666 0.66667,0.66667 z m -44.66779,-3 h 0.4171 l 4.63289,-1.98589 4.6329,-1.98589 1.84152,-4.264109 1.84151,-4.26411 0.67182,-5.68092 0.67182,-5.68093 -2.07384,-1.10988 -2.07383,-1.10989 -4.38283,3.01547 -4.38283,3.01547 -1.10666,3.17456 -1.10666,3.17457 v 6.85078 6.850769 z m 78.955761,-0.77448 0.87284,-0.4954 -0.45807,-7.115059 -0.45807,-7.11506 -1.41478,-2.68022 -1.41477,-2.68021 -3.96004,-2.68218 -3.96003,-2.68218 -1.53997,0.96367 -1.53996,0.96368 -0.30485,3.55615 -0.30484,3.55615 1.58999,5.46939 1.59,5.4694 1.71485,1.531425 1.71485,1.531444 3.5,1.45219 3.5,1.4522 z m -45.872851,-7.896159 4,-0.55784 0.39468,-0.36377 0.39468,-0.36377 0.49733,-5.17588 0.49734,-5.17587 -3.89202,0.64288 -3.89201,0.64288 -2.25,0.011 -2.25,0.011 v 4.91667 4.91667 l 1.25,0.52692 1.25,0.52693 z m 14,0.51915 2,0.12087 1.38012,-0.87413 1.380121,-0.87412 -0.66278,-4.41978 -0.662791,-4.41977 -5.00999,-1.02628 -5.00999,-1.02629 -0.54484,0.88158 -0.54485,0.88158 0.67332,4.89561 0.67332,4.89561 2.16418,0.42212 2.16418,0.42213 z m -18.68426,-12.88765 5.31574,0.0391 1.93426,-1.03518 1.93426,-1.03519 -0.011,-2.71481 -0.011,-2.71482 -0.6289,-3.80581 -0.62889,-3.80582 -3.36838,-2.56918 -3.36837,-2.56919 h -2.54422 -2.54422 l -2.46667,2.31732 -2.46667,2.31732 -3.11283,4.85092 -3.11283,4.85092 1.88199,1.5086 1.882,1.50859 3,1.40902 3,1.40903 z m 21.9741,0.009 5.289841,0.0304 4.00888,-2.04518 4.00888,-2.04518 0.56356,-1.46861 0.56356,-1.46861 -3.83715,-5.57137 -3.83716,-5.57138 -1.70938,-0.91483 -1.70939,-0.91484 h -2.53094 -2.530951 l -3.5348,3.10362 -3.53479,3.1036 v 5.84671 5.84672 l 1.75,1.01928 1.75,1.01928 z m -44.85234,-4.27604 0.5625,-0.34815 3.07414,-1.32554 3.07413,-1.32554 3.85147,-5.94834 3.85147,-5.94834 1.8244,-1.13935 1.82439,-1.13935 v -0.75945 -0.75946 h -5.03212 -5.03212 l -3.50387,1.46401 -3.50387,1.46401 -1.46401,3.50387 -1.46401,3.50387 v 3.86546 3.86545 l 0.6875,0.6875 0.6875,0.6875 z m 68.205511,0.24909 0.64301,0.0574 0.60699,-1.58179 0.60699,-1.58178 v -2.45033 -2.45034 l -1.43982,-3.44598 -1.43983,-3.44599 -3.31017,-2.01815 -3.31018,-2.01816 -6,0.0322 -6,0.0322 2.60844,2.21404 2.60843,2.21403 3.52461,5.31299 3.52461,5.31299 3.36696,1.87962 3.36695,1.87961 z m -34.143011,-3.94261 0.80064,-2.5 0.0997,-2.57568 0.0997,-2.57569 2.25714,-2.12047 2.25714,-2.12048 3.49286,-1.5147 3.492861,-1.51469 -1.12428,-0.0392 -1.124271,-0.0391 -4.12573,1.45564 -4.12572,1.45564 v -1.5053 -1.5053 l 1.38967,-2.70034 1.38968,-2.70034 0.99402,-3.6207 0.99401,-3.62071 -3.38369,1.03849 -3.38369,1.03848 -3.5,-1.07418 -3.5,-1.07418 v 0.38357 0.38357 l 2.5,6.64189 2.5,6.64189 v 0.98793 0.98793 l -1.75,-0.72044 -1.75,-0.72045 -2,-0.49682 -2,-0.49683 3.62398,2.56071 3.62399,2.5607 0.62601,1.63136 0.62602,1.63137 0.0997,4.16821 0.0997,4.16821 z m -11,-14 h 1.33333 l -0.66667,-0.66666 -0.66666,-0.66667 -0.66667,0.66667 -0.66667,0.66666 z m 6.23382,-1.12009 0.73382,0.12009 -1.70417,-3.75 -1.70416,-3.75 -0.15786,-0.29487 -0.15786,-0.29487 -2.94094,2.94094 -2.94095,2.94094 4.06915,0.98384 4.06915,0.98384 z m 10.19516,-0.21428 1.42899,-0.54836 3.40424,-0.63864 3.404231,-0.63863 -3.083221,-3.17 -3.08322,-3.17 -1.75,3.85921 -1.75,3.8592 v 0.49778 0.49779 z m -5.42898,-12.72784 3.5,-0.001 1.56841,-1.2182 1.5684,-1.21819 2.38993,-4.81223 2.389921,-4.81223 -1.116551,-0.69006 -1.11655,-0.69007 -0.6791,-3.99771 -0.6791,-3.9977 -0.48651,-1.77029 -0.4865,-1.77029 -6.67618,0.63659 -6.67617,0.63659 -1.22847,1.54539 -1.22847,1.54538 0.60621,2.41536 0.60622,2.41536 -1.22385,2.28678 -1.22384,2.28677 1.5961,3.08652 1.5961,3.08652 v 1.49997 1.49997 l 1.75,1.01928 1.75,1.01928 z m 9.66666,-22.27112 0.66667,-0.66667 -0.66667,-0.66666 -0.66666,-0.66667 v 1.33333 1.33334 z m -18.01759,-2.17289 1.64908,-1.64907 1.77177,0.46333 1.77177,0.46333 4.72929,-0.88353 4.72929,-0.88353 1.59986,1.12262 1.59987,1.12262 -2.80577,-2.62477 -2.80576,-2.62478 -2.19424,-0.11069 -2.19423,-0.11069 -2.5,0.16539 -2.5,0.1654 -2.25,2.50106 -2.25,2.50106 v 1.01566 1.01567 z M 219.9952,273.47894 h -2.68643 l -1.32841,-1.60063 -1.32841,-1.60064 0.23157,-11.14936 0.23157,-11.14937 1.05614,-14.91702 1.05614,-14.91702 2.42608,-6.72564 2.42607,-6.72565 0.56741,-4.82455 0.56741,-4.82454 0.67477,-1.03279 0.67477,-1.03279 0.0528,-24.5 0.0528,-24.5 3.25261,-9.5 3.2526,-9.5 0.53418,-8.5 0.53419,-8.5 -1.58956,-5.9601 -1.58962,-5.960099 -0.0466,-3.5399 -0.0466,-3.5399 -2.56901,5 -2.56901,5 -1.29854,1.499999 -1.29854,1.5 -2.12719,6.34106 -2.12719,6.34106 -5.47357,7.81135 -5.47356,7.81136 -2.11114,5.07996 -2.11113,5.07996 1.626,6.47314 1.626,6.47314 v 1.04449 1.04448 h -1.92245 -1.92245 l -1.19459,-3.61964 -1.19459,-3.61965 -0.89199,1.36965 -0.89199,1.36964 -1.56193,5.25 -1.56193,5.25 h -1.92896 -1.92904 v -1.69113 -1.69113 l -1.3483,1.84391 -1.34829,1.8439 -1.15171,-0.71179 -1.1517,-0.71179 v -1.44099 -1.44098 h -1.5 -1.5 v -1.30887 -1.30887 l 1.4682,-1.94113 1.46819,-1.94113 0.0318,-0.95 0.0318,-0.95 -1.2,1.2 -1.2,1.2 h -1.3 -1.3 v -1.28416 -1.28416 l 5.57936,-5.46584 5.57936,-5.46584 1.83715,-3.54651 1.83716,-3.54651 0.71876,-3.95349 0.71877,-3.95349 2.94933,-7.5 2.94934,-7.5 3.41538,-5.63081 3.41539,-5.630809 0.0211,-1.86919 0.0211,-1.86919 2.55756,-7 2.55755,-7 0.39784,-6.75418 0.39783,-6.75418 1.42114,-2.74818 1.42114,-2.74818 1.90203,-1.72131 1.90202,-1.72131 4.32608,-1.52633 4.32608,-1.52633 h 3.3714 3.37139 l 4.00288,-3.61636 4.00288,-3.61636 v -1.76152 -1.76151 l -1.61578,-3.86712 -1.61579,-3.86711 0.47708,-7.43384 0.47707,-7.43384 3.62402,-3.32117 3.62403,-3.32117 h 3.46763 3.46763 l 2.53303,1.15413 2.53303,1.15412 1.64204,2.50606 1.64203,2.50606 0.5046,6.28629 0.50461,6.28628 -1.70278,5.20593 -1.70277,5.20592 0.5356,2.134 0.5356,2.13399 3.28173,2.42629 3.28173,2.42629 5.72548,0.67509 5.72548,0.67509 3.77735,1.95976 3.77735,1.95977 1.83926,3.14769 1.83927,3.14769 0.32786,7.25478 0.32786,7.25477 2.57311,5.5 2.5731,5.5 0.01,3.13911 0.01,3.13911 4.03074,6.860889 4.03074,6.86089 3.9718,12.54215 3.9718,12.54216 6.56535,7.19348 6.56536,7.19348 -0.62691,1.01437 -0.62691,1.01436 h -1.47617 -1.47617 l 1.07831,2.01484 1.07831,2.01483 -1.54313,0.59216 -1.54359,0.59215 v 1.33399 1.334 l -1.16195,0.71812 -1.16195,0.71813 -1.83805,-2.26989 -1.83805,-2.2699 v 2.61079 2.61078 h -1.47207 -1.47206 l -1.54301,-5.25 -1.54301,-5.25 -0.84111,-1.32633 -0.84112,-1.32632 -2.19681,3.72332 -2.19682,3.72332 -0.94296,-0.94296 -0.94296,-0.94296 1.65779,-7.63931 1.6578,-7.63932 -5.67883,-9.5162 -5.67882,-9.51621 -0.99729,-0.61636 -0.9973,-0.61637 -1.85051,-3.68215 -1.8505,-3.68215 -0.66149,-3.64855 -0.66148,-3.64855 -1.99132,-2.53155 -1.99131,-2.531549 -1.92535,-4.30039 -1.92534,-4.30038 -0.43045,1.48048 -0.43046,1.48049 -1.37661,6.499995 -1.3766,6.500004 0.11535,8 0.11535,8 3.70169,14 3.70169,14 -0.27044,20 -0.27045,20 0.84493,7 0.84493,7 2.42542,5.5 2.42541,5.5 0.93591,7.5 0.93592,7.5 0.64726,20.63448 0.64727,20.63447 -2.20877,1.1821 -2.20877,1.1821 -3.03409,-0.6664 -3.03408,-0.6664 -1.29333,-3.15017 -1.29334,-3.15018 -0.71136,-3.33184 -0.71136,-3.33184 2.20014,-2.34194 2.20013,-2.34194 -1.24184,-3.82622 -1.24185,-3.82622 -4.46369,-8.93476 -4.46369,-8.93477 -0.32312,-9.2671 -0.32311,-9.2671 -2.95175,-6.29814 -2.95176,-6.29813 -1.73839,-7.5 -1.7384,-7.5 -2.97126,-8.5 -2.97127,-8.5 -0.55553,-7.75 -0.55554,-7.75 h -0.7256 -0.7256 l -0.4673,7.28167 -0.46731,7.28168 -3.57238,11.46832 -3.57238,11.46833 -1.2099,5.5 -1.20989,5.5 -2.48668,5 -2.48668,5 -0.8757,10.5 -0.8757,10.5 -5.51954,10.77489 -5.51955,10.77489 v 1.75287 1.75287 l 2,1.71245 2,1.71246 v 1.88406 1.88406 l -1.52634,4.37572 -1.52634,4.37573 -1.66479,1.25 -1.66479,1.25 z m 0.49112,-2 h 2.17756 l 1.2,-1.2 1.2,-1.2 v -2.24098 -2.24098 l 1,-0.61804 1,-0.61803 v -2.38197 -2.38196 l -1.1118,-0.68714 -1.11181,-0.68713 -0.96602,1.37812 -0.96603,1.37811 0.63945,-5.5 0.63945,-5.5 3.54955,-7.00294 3.54955,-7.00293 -3.36117,-3.66707 -3.36117,-3.66707 -3.42404,3.06142 -3.42404,3.06141 -0.91092,17.40375 -0.91092,17.40376 1.2074,1.45483 1.20741,1.45484 z m 67.70512,-0.0304 1.62755,0.0304 0.99245,-1.25 0.99246,-1.25 -0.29785,-12.90764 -0.29786,-12.90765 -0.68828,-5.09235 -0.68829,-5.09236 -3.13387,-2.65439 -3.13387,-2.6544 -3.33594,3.62391 -3.33593,3.62391 1.61016,2.72579 1.61016,2.72579 2.47578,6.57752 2.47577,6.57753 v 3.09962 3.09961 l -1.34201,-1.11377 -1.34201,-1.11377 -0.65799,0.65799 -0.65799,0.65799 v 2.27432 2.27432 l 1,0.61803 1,0.61804 v 2.39129 2.39129 l 1.75,1.01928 1.75,1.01928 z m -54.84186,-40.5127 1.09676,-1.95689 0.76518,-11.38395 0.76518,-11.38395 -1.57413,-3.04405 -1.57414,-3.04404 -1.40145,3.92799 -1.40144,3.928 -1.98083,8.28873 -1.98083,8.28871 v 0.85552 0.85552 l 3.09447,3.31264 3.09447,3.31264 z m 43.45156,0.34848 1.55078,-0.30537 1.97047,-2.64183 1.97047,-2.64183 -2.05928,-8.85817 -2.05929,-8.85817 -1.45266,-4 -1.45266,-4 -1.46237,3.5 -1.46236,3.5 0.6952,11.07914 0.69521,11.07913 0.75785,1.22623 0.75785,1.22624 z m -56.84861,-1.74578 2.06551,-1.10543 1.19602,-2.22708 1.19601,-2.22708 2.45689,-9.5 2.45689,-9.5 0.0713,-3.74868 0.0713,-3.74867 -1.11419,-1.11419 -1.1142,-1.11419 -1.08713,0.67188 -1.08705,0.67188 v 3.02439 3.0244 l -2.86274,7.16659 -2.86275,7.16658 -0.72568,6.83251 -0.72569,6.83251 z m 68.50182,-0.0596 h 1.41987 l -0.55222,-6.25 -0.55223,-6.25 -2.85294,-7.16658 -2.85295,-7.16659 v -2.96097 -2.96097 l -1.37197,-1.13864 -1.37198,-1.13863 -1.26353,3.05044 -1.26353,3.05044 2.07182,7.21575 2.07182,7.21575 0.6235,4.0838 0.62351,4.08379 1.92548,3.16621 1.92548,3.1662 z m -48.7611,-28.67987 2.13631,-4.87444 1.21023,-5.82967 1.21024,-5.82967 -1.05184,-6.14317 -1.05184,-6.14318 -0.63747,-5.94432 -0.63747,-5.94431 -1.79394,5.09408 -1.79395,5.09409 -0.72027,6.35023 -0.72027,6.35023 -1.38955,3.37213 -1.38955,3.37212 v 3.35112 3.35113 l 2.24653,4.62404 2.24653,4.62404 z m 31.30584,3.65407 0.56479,-0.0258 1.75,-3.80181 1.75,-3.80182 v -3.65215 -3.65215 l -1.42373,-3.77023 -1.42372,-3.77024 -0.64406,-5 -0.64405,-5 -1.1008,-4 -1.1008,-4 -0.61716,-0.73574 -0.61717,-0.73575 -1.76626,11.39073 -1.76625,11.39072 1.59271,6.14646 1.5927,6.14645 1.64451,3.44857 1.6445,3.44856 z m -40.32822,-7.9742 h 0.39301 v -2.05902 -2.05901 l -0.95633,0.59104 -0.95632,0.59104 0.56331,1.46798 0.56332,1.46797 z m 46.83399,-1 h 0.44099 l 0.57532,-0.9309 0.57533,-0.9309 -1.01631,-0.62812 -1.01631,-0.62811 v 1.55901 1.55902 z m -47.69245,-5.57693 3.24853,-3.75289 0.99589,-3.58509 0.9959,-3.58509 0.006,-3.1609 0.006,-3.16091 1.9871,-6.33909 1.9871,-6.3391 0.0129,-1.23658 0.0129,-1.23658 -3.3321,-1.39224 -3.3321,-1.39224 -2.1679,-2.75604 -2.1679,-2.75604 -0.0634,-2.61514 -0.0634,-2.61514 -0.97551,2.44224 -0.9755,2.44225 0.28889,22.39573 0.28889,22.39574 z m 52.31561,3.57693 h 0.88636 l -1.02396,-2.69322 -1.02397,-2.69323 0.69155,-18.13863 0.69155,-18.13864 -0.78144,-3.91814 -0.78144,-3.91814 -0.9429,3.5 -0.94289,3.5 -2.04408,2.19813 -2.04408,2.19813 -2.87442,0.63132 -2.87442,0.63133 v 1.29482 1.29482 l 1.41343,4.00607 1.41342,4.00608 1.18398,7.81074 1.18398,7.81074 0.80422,2.11528 0.80423,2.11528 2.68726,3.19363 2.68727,3.19363 z m -34.40494,-20 2.51986,-6.5 0.52627,-5.01641 0.52626,-5.01642 -4.61157,0.36677 -4.61156,0.36678 0.58889,4.14964 0.58889,4.14964 0.89932,6 0.89933,6 0.0772,1 0.0772,1 z m 15.09457,5.57957 0.36109,-0.36109 1.42463,-9.35924 1.42464,-9.35924 0.0179,-1.1493 0.0179,-1.14931 -4.5,-0.3579 -4.5,-0.3579 -0.0171,3.00721 -0.0172,3.0072 2.71349,8.22033 2.71349,8.22033 z m -70.25377,-20.57957 h 0.5 v -0.5 -0.5 h -0.5 -0.5 v 0.5 0.5 z m -2,-1 h 0.5 v -0.5 -0.5 h -0.5 -0.5 v 0.5 0.5 z m -2,-1 h 0.5 v -0.5 -0.5 h -0.5 -0.5 v 0.5 0.5 z m 126.10417,-0.27083 0.60416,-0.60417 -0.52522,-1.3125 -0.52522,-1.3125 -0.0789,1.91667 -0.079,1.91666 z m -120.9375,-1.0625 0.66666,-0.66667 -0.66666,-0.66667 -0.66667,-0.66666 v 1.33333 1.33333 z m 50.74809,0.0833 5.91475,-0.24999 1.25917,-3.5 1.25916,-3.5 0.0761,-8.34571 0.0761,-8.3457 -1.63554,-2.76876 -1.63554,-2.76875 -2.76875,-1.63554 -2.76875,-1.63554 h -1.39276 -1.39276 l -3.54534,3.75 -3.54533,3.75 -2.15762,6.10267 -2.15765,6.10269 v 2.60028 2.60028 l 1.13294,2.48653 1.13294,2.48654 3.11706,1.56051 3.11706,1.56051 z m 19.15273,0.25001 h 5.63025 l 3.30887,-1.57016 3.30887,-1.57016 1.20429,-2.9074 1.20428,-2.9074 -0.48817,-3.27244 -0.48817,-3.27244 -2.10747,-5.44106 -2.10747,-5.44106 -3.68776,-3.7766 -3.68776,-3.77661 -3.92666,2.20691 -3.92666,2.2069 -1.40197,2.7111 -1.40196,2.7111 v 8.00261 8.00261 l 0.91865,2.29705 0.91864,2.29705 0.54997,1.75 0.54997,1.75 z m -72.80926,-3.25 1.705,-2.75 h 0.76839 0.76838 l 0.004,1.75 0.004,1.75 2.11258,-3.46545 2.11259,-3.46546 2.03851,2.46546 2.03851,2.46545 -0.64118,-2.5 -0.64118,-2.5 -0.0137,-1.67857 -0.0137,-1.67857 -1.57143,-1.57143 -1.57143,-1.57143 h -3.24051 -3.24051 l -2.16265,2.92514 -2.16265,2.92514 1.11799,0.37266 1.11799,0.37266 -1.19857,2.4522 -1.19856,2.4522 1.54483,-1.927 1.54484,-1.927 0.67277,0.67278 0.67277,0.67277 -1.16244,2.55128 -1.16244,2.55128 0.0266,0.70294 0.0266,0.70295 z m 127.74177,2.25 h 0.5 v -0.5 -0.5 h -0.5 -0.5 v 0.5 0.5 z m 4.33156,-1.003 0.33156,0.003 -2.08156,-3.36803 -2.08156,-3.36802 v -1.19098 -1.19098 l 1,0.61803 1,0.61804 v -0.52423 -0.52422 l -3.04435,-3.46731 -3.04434,-3.46732 -3.20566,1.069 -3.20565,1.069 -0.62214,0.61352 -0.62214,0.61352 -0.6261,4.5 -0.62609,4.5 1.04792,-1.75 1.04793,-1.75 h 1.26888 1.26889 l 1.61747,3.25 1.61747,3.25 0.064,-1.75 0.0639,-1.75 h 0.63976 0.63975 l 1.37559,1.75 1.37558,1.75 -0.56377,-3 -0.56376,-3 2.79842,3.247 2.79843,3.247 z m -17.33156,-1.99698 h 0.5 v -0.5 -0.5 h -0.5 -0.5 v 0.5 0.5 z m -106.45089,-13.116 1.54911,0.116 1.31635,-3.6403 1.31635,-3.6403 6.1596,-9.1097 6.1596,-9.1097 1.22494,-2.79705 1.22494,-2.79705 v -1.95295 -1.95295 h -1.5 -1.5 l -0.0902,-3.25 -0.0902,-3.249999 -0.9384,3.249999 -0.9384,3.25 h -0.92172 -0.92172 l -0.88331,-1.57839 -0.88332,-1.5784 -1.52414,2.3284 -1.52415,2.32839 -2.71004,5.35058 -2.71004,5.35058 -2.79196,9.14942 -2.79196,9.14942 -0.71365,1.66254 -0.71366,1.66253 1.82342,0.47147 1.82343,0.47146 z m 30.74222,-1.25503 1.13121,-0.69913 0.6785,-3.61675 0.67851,-3.61676 3.47659,-3.84816 3.47658,-3.84817 -1.86636,0.0153 -1.86636,0.0153 -1.02724,0.73468 -1.02725,0.73469 -1.85139,6 -1.8514,6 -0.5413,1.41405 -0.5413,1.41404 z m 48.71882,0.19421 0.4542,-0.4542 -1.96278,-6.86348 -1.96278,-6.86349 -1.26939,-0.80569 -1.2694,-0.80569 -1.82792,-0.0153 -1.82793,-0.0153 3.57793,4.18 3.57792,4.18 v 1.2549 1.2549 l 1.02798,2.70379 1.02798,2.70379 z m 30.59327,0.17682 h 1.73301 l 1.38028,-0.52966 1.38029,-0.52967 -2.40939,-7.72033 -2.40939,-7.72034 -2.95863,-7.09975 -2.95863,-7.09975 -1.98591,-3.26557 -1.98592,-3.26557 -1.29286,1.7681 -1.29286,1.76809 -1.03483,-0.63956 -1.03483,-0.63956 -0.68686,-5.497449 -0.68686,-5.49745 -1.08754,-0.67214 -1.08754,-0.67213 0.72131,2.40637 0.72131,2.40637 0.56627,4.25 0.56626,4.249999 h -1.63005 -1.63005 v 1.53212 1.53212 l 1.47002,3.51825 1.47002,3.51825 5.44023,8.19963 5.44023,8.19963 1.77496,3.75 1.77496,3.75 z m -51.87863,-12.58752 3.72479,-3.36172 2.52521,-0.63379 2.52521,-0.63378 v -0.77729 -0.77728 l -1.49384,-2.86431 -1.49384,-2.86431 -0.006,-3.10078 -0.006,-3.10077 -1.0816,-3.10269 -1.08161,-3.10269 -3.10999,-1.969109 -3.11,-1.96911 -3.61134,1.84237 -3.61134,1.842359 -1.19706,2.62727 -1.19738,2.62726 v 4.0026 4.00261 l -1.57374,3.04327 -1.57373,3.04327 0.32373,0.18673 0.32374,0.18672 3.65803,1.66031 3.65803,1.66031 1.84197,2.44713 1.84197,2.44713 z m -21.643,-4.80549 1.58178,-0.60699 h 0.69464 0.69464 l -0.3611,-3.78653 -0.36111,-3.78653 -1.89308,-2.46347 -1.89309,-2.46347 -0.0222,6.85699 -0.0222,6.85699 z m 38.13901,0.27701 1.22079,0.116 -0.22079,-6.99019 -0.2208,-6.99018 -0.18191,-0.01 -0.1819,-0.01 -1.98222,2.78377 -1.98221,2.78376 -0.68002,3.62478 -0.68001,3.62479 1.84414,0.47545 1.84413,0.47545 z m -33.03893,-2.884 h 0.42018 l 1.44898,-3.46788 1.44897,-3.46788 v -4.18573 -4.18573 l 3.93677,-3.634399 3.93676,-3.6344 -4.58817,-8.46199 -4.58817,-8.46199 -0.16681,-0.23488 -0.16681,-0.23488 -3.93178,2.03486 -3.93179,2.03485 -2.56979,-0.48893 -2.56979,-0.48893 1.18555,9.87211 1.18556,9.872109 3.69078,5.02785 3.69077,5.02785 0.5743,3.53899 0.5743,3.539 z m 27.52237,-3.32043 0.75044,-3.61185 3.69478,-5.14287 3.69478,-5.14286 1.29268,-9.140989 1.29269,-9.141 0.0352,-0.81739 0.0352,-0.81738 -1.97289,0.62617 -1.9729,0.62617 -4.68164,-2.07091 -4.68165,-2.07092 -0.22751,0.26213 -0.22752,0.26213 -4.66354,8.66653 -4.66355,8.66653 3.00322,1.77404 3.00321,1.77404 0.96121,2.559429 0.96121,2.55943 0.58779,4.21747 0.58779,4.21746 1.22029,2.67825 1.22029,2.67825 z m -50.35338,-12.67957 h 2.06483 l 2.64303,-4.509979 2.64303,-4.50999 1.46325,-4.74001 1.46326,-4.74002 -1.22384,-5.25 -1.22385,-5.25 h -0.88994 -0.88995 l -2.93341,1.51693 -2.93342,1.51693 -1.62681,3.1459 -1.62681,3.1459 -1.89011,5.49372 -1.89012,5.49372 v 3.90247 3.902469 l 1,-0.618044 1,-0.618025 0.0137,-3.19099 0.0137,-3.19098 0.60298,-2.25 0.60297,-2.25 h 2.0106 2.0106 l -0.50615,4.75 -0.50615,4.75 -0.72807,1.749995 -0.72807,1.750004 z m 72.80702,0 h 1.5561 l -0.678,-1.750004 -0.678,-1.749995 -0.56828,-4.75 -0.56828,-4.75 h 2.02266 2.02266 l 0.60297,2.25 0.60298,2.25 0.0137,3.19098 0.0136,3.19099 0.88565,0.547355 0.88565,0.547364 0.44949,-2.351359 0.4495,-2.35137 -1.31093,-5.12243 -1.31092,-5.12243 -2.52942,-4.99155 -2.52941,-4.99156 -2.94514,-1.52299 -2.94515,-1.523 h -0.91715 -0.91715 l -1.03375,5.22823 -1.03375,5.22822 1.80591,5.80241 1.80591,5.8024 2.64622,3.46937 2.64622,3.469369 z m -74.56401,-6.919509 0.9671,-2.41952 -1.03049,-1.03048 -1.03048,-1.03049 0.0634,3.45 0.0634,3.45 z m 37.8993,-0.0998 0.50683,-0.0193 4.28239,-8.04256 4.2824,-8.04256 0.96762,-7.63185 0.96763,-7.63186 2.04653,-3.92637 2.04654,-3.92636 -0.29655,-0.20155 -0.29656,-0.20154 -7.25,-2.06337 -7.25,-2.06337 -7.25,2.06337 -7.25,2.06337 -0.29064,0.19562 -0.29063,0.19563 2.06676,3.5029 2.06676,3.5029 0.55161,6.87313 0.55161,6.87313 4.66543,9.25 4.66543,9.25 z m -21.44739,-14.98067 h 1.23581 l 4.30432,-1.9271 4.30431,-1.9271 -0.28199,-5.31295 -0.28199,-5.31295 -1.44701,-3.46318 -1.44701,-3.46318 -2.49811,2.6941 -2.49811,2.6941 -2.968,1.53481 -2.968,1.53481 -0.1508,1.72432 -0.1508,1.72432 0.23885,3 0.23885,3 1.56694,1.75 1.56694,1.75 z m 42.63279,-0.0843 1.67857,0.0843 1.43289,-1.43289 1.43289,-1.43289 0.69283,-4.31711 0.69283,-4.31711 -2.80429,-2.21468 -2.80429,-2.21468 -3.19011,-2.58149 -3.1901,-2.58149 -0.9639,1.80107 -0.96391,1.80107 -1.09599,5.92876 -1.09599,5.92876 v 0.7785 0.7785 l 4.25,1.95358 4.25,1.95358 z m -58.58297,-5.10238 0.9044,-0.45625 4.14727,-1.78989 4.14726,-1.78989 0.60172,-2.63866 0.60171,-2.63867 4.74478,-3 4.74477,-3 0.35591,-1.8868 0.35592,-1.88681 -4.84967,0.46837 -4.84967,0.46837 -3.79405,1.80328 -3.79405,1.80328 -1.47272,2.84792 -1.47272,2.84792 -0.63763,4.65204 -0.63763,4.65203 z m 75.21537,-2.90319 0.31097,-2.84608 -1.93921,-4.38389 -1.9392,-4.38389 -4.43749,-2.14816 -4.43749,-2.14815 h -4.18427 -4.18428 v 1.04546 1.04545 l 2.31299,2.20455 2.313,2.20454 3.187,1.70349 3.18701,1.70349 v 2.54651 2.54651 h 1.2656 1.2656 l 3.4844,1.87813 3.4844,1.87813 z m -48.61795,-19.154 1.68189,-0.6454 4.06254,-1.09393 4.06255,-1.09393 v -2.96145 -2.96146 l -1.75,0.0328 -1.75,0.0328 -3.99443,4.66799 -3.99444,4.668 z m 21.56432,0.13972 0.25734,0.10411 -3.25734,-4.82441 -3.25734,-4.82441 -1.75,0.44104 -1.75,0.44104 v 2.82525 2.82524 l 4.75,1.45401 4.75,1.45401 z m -3.81636,-9.89589 h 1.05902 v -1 -1 h -0.44098 -0.44099 l -0.61803,1 -0.61803,1 z m -7.27277,-1.0318 3.16822,0.0318 1.62438,-0.62334 1.62438,-0.62333 1.95741,-3.83683 1.9574,-3.83682 v -4.49279 -4.49278 l -1.19469,-2.62205 -1.19468,-2.62205 -2.75566,-1.425 -2.75565,-1.42501 h -2.09932 -2.09932 l -2.75565,1.42501 -2.75566,1.425 -1.19468,2.62205 -1.19469,2.62205 v 5.23044 5.23044 l 1.70411,2.47251 1.70411,2.4725 1.54589,1.2182 1.54589,1.2182 z" />
</svg>
